<svg width="1424" height="108" viewBox="0 0 1424 108" fill="none" xmlns="http://www.w3.org/2000/svg">
<path d="M727.282 29.7802C718.06 23.4562 708.19 20.25 697.949 20.25C688.734 20.25 679.75 22.9922 671.247 28.3669C662.672 33.7985 654.266 43.6641 647.375 54C652.948 63.2812 660.571 72.8241 668.511 78.2958C677.619 84.5691 687.523 87.75 697.949 87.75C708.285 87.75 718.168 84.5712 727.333 78.3021C735.401 72.7734 743.079 63.2433 748.625 54C743.06 44.839 735.357 35.3194 727.282 29.7802ZM698 74.25C693.995 74.25 690.08 73.0624 686.75 70.8373C683.42 68.6122 680.824 65.4495 679.291 61.7493C677.759 58.0491 677.358 53.9775 678.139 50.0494C678.92 46.1213 680.849 42.5131 683.681 39.6811C686.513 36.8491 690.121 34.9205 694.049 34.1391C697.978 33.3577 702.049 33.7588 705.749 35.2914C709.45 36.8241 712.612 39.4196 714.837 42.7497C717.062 46.0798 718.25 49.9949 718.25 54C718.244 59.3687 716.108 64.5158 712.312 68.3121C708.516 72.1084 703.369 74.2439 698 74.25V74.25Z" fill="white"/>
<circle cx="698.5" cy="53.5" r="10.5" fill="#FF1010"/>
<rect x="11.8086" y="38" width="4" height="40" transform="rotate(17.1709 11.8086 38)" fill="#FF1010"/>
<rect x="27.8086" y="38" width="4" height="40" transform="rotate(17.1709 27.8086 38)" fill="#FF1010"/>
<rect x="43.8086" y="38" width="4" height="40" transform="rotate(17.1709 43.8086 38)" fill="#FF1010"/>
<rect x="59.8086" y="38" width="4" height="40" transform="rotate(17.1709 59.8086 38)" fill="#FF1010"/>
<rect x="75.8086" y="38" width="4" height="40" transform="rotate(17.1709 75.8086 38)" fill="#FF1010"/>
<rect x="91.8086" y="38" width="4" height="40" transform="rotate(17.1709 91.8086 38)" fill="#FF1010"/>
<rect x="107.809" y="38" width="4" height="40" transform="rotate(17.1709 107.809 38)" fill="#FF1010"/>
<rect x="123.809" y="38" width="4" height="40" transform="rotate(17.1709 123.809 38)" fill="#FF1010"/>
<rect x="139.809" y="38" width="4" height="40" transform="rotate(17.1709 139.809 38)" fill="#FF1010"/>
<rect x="155.809" y="38" width="4" height="40" transform="rotate(17.1709 155.809 38)" fill="#FF1010"/>
<rect x="171.809" y="38" width="4" height="40" transform="rotate(17.1709 171.809 38)" fill="#FF1010"/>
<rect x="187.809" y="38" width="4" height="40" transform="rotate(17.1709 187.809 38)" fill="#FF1010"/>
<rect x="203.809" y="38" width="4" height="40" transform="rotate(17.1709 203.809 38)" fill="#FF1010"/>
<rect x="219.809" y="38" width="4" height="40" transform="rotate(17.1709 219.809 38)" fill="#FF1010"/>
<rect x="235.809" y="38" width="4" height="40" transform="rotate(17.1709 235.809 38)" fill="#FF1010"/>
<rect x="251.809" y="38" width="4" height="40" transform="rotate(17.1709 251.809 38)" fill="#FF1010"/>
<rect x="267.809" y="38" width="4" height="40" transform="rotate(17.1709 267.809 38)" fill="#FF1010"/>
<rect x="283.809" y="38" width="4" height="40" transform="rotate(17.1709 283.809 38)" fill="#FF1010"/>
<rect x="299.809" y="38" width="4" height="40" transform="rotate(17.1709 299.809 38)" fill="#FF1010"/>
<rect x="315.809" y="38" width="4" height="40" transform="rotate(17.1709 315.809 38)" fill="#FF1010"/>
<rect x="331.809" y="38" width="4" height="40" transform="rotate(17.1709 331.809 38)" fill="#FF1010"/>
<rect x="347.809" y="38" width="4" height="40" transform="rotate(17.1709 347.809 38)" fill="#FF1010"/>
<rect x="363.809" y="38" width="4" height="40" transform="rotate(17.1709 363.809 38)" fill="#FF1010"/>
<rect x="379.809" y="38" width="4" height="40" transform="rotate(17.1709 379.809 38)" fill="#FF1010"/>
<rect x="395.809" y="38" width="4" height="40" transform="rotate(17.1709 395.809 38)" fill="#FF1010"/>
<rect x="411.809" y="38" width="4" height="40" transform="rotate(17.1709 411.809 38)" fill="#FF1010"/>
<rect x="427.809" y="38" width="4" height="40" transform="rotate(17.1709 427.809 38)" fill="#FF1010"/>
<rect x="443.809" y="38" width="4" height="40" transform="rotate(17.1709 443.809 38)" fill="#FF1010"/>
<rect x="459.809" y="38" width="4" height="40" transform="rotate(17.1709 459.809 38)" fill="#FF1010"/>
<rect x="475.809" y="38" width="4" height="40" transform="rotate(17.1709 475.809 38)" fill="#FF1010"/>
<rect x="491.809" y="38" width="4" height="40" transform="rotate(17.1709 491.809 38)" fill="#FF1010"/>
<rect x="507.809" y="38" width="4" height="40" transform="rotate(17.1709 507.809 38)" fill="#FF1010"/>
<rect x="539.809" y="38" width="4" height="40" transform="rotate(17.1709 539.809 38)" fill="#FF1010"/>
<rect x="523.809" y="38" width="4" height="40" transform="rotate(17.1709 523.809 38)" fill="#FF1010"/>
<rect x="555.809" y="38" width="4" height="40" transform="rotate(17.1709 555.809 38)" fill="#FF1010"/>
<rect x="555.809" y="38" width="4" height="40" transform="rotate(17.1709 555.809 38)" fill="#FF1010"/>
<rect x="571.809" y="38" width="4" height="40" transform="rotate(17.1709 571.809 38)" fill="#FF1010"/>
<rect x="589.809" y="38" width="4" height="40" transform="rotate(17.1709 589.809 38)" fill="#FF1010"/>
<rect x="843.809" y="38" width="4" height="40" transform="rotate(17.1709 843.809 38)" fill="#FF1010"/>
<rect x="811.809" y="38" width="4" height="40" transform="rotate(17.1709 811.809 38)" fill="#FF1010"/>
<rect x="859.809" y="38" width="4" height="40" transform="rotate(17.1709 859.809 38)" fill="#FF1010"/>
<rect x="827.809" y="38" width="4" height="40" transform="rotate(17.1709 827.809 38)" fill="#FF1010"/>
<rect x="875.809" y="38" width="4" height="40" transform="rotate(17.1709 875.809 38)" fill="#FF1010"/>
<rect x="891.809" y="38" width="4" height="40" transform="rotate(17.1709 891.809 38)" fill="#FF1010"/>
<rect x="907.809" y="38" width="4" height="40" transform="rotate(17.1709 907.809 38)" fill="#FF1010"/>
<rect x="923.809" y="38" width="4" height="40" transform="rotate(17.1709 923.809 38)" fill="#FF1010"/>
<rect x="939.809" y="38" width="4" height="40" transform="rotate(17.1709 939.809 38)" fill="#FF1010"/>
<rect x="955.809" y="38" width="4" height="40" transform="rotate(17.1709 955.809 38)" fill="#FF1010"/>
<rect x="971.809" y="38" width="4" height="40" transform="rotate(17.1709 971.809 38)" fill="#FF1010"/>
<rect x="987.809" y="38" width="4" height="40" transform="rotate(17.1709 987.809 38)" fill="#FF1010"/>
<rect x="1003.81" y="38" width="4" height="40" transform="rotate(17.1709 1003.81 38)" fill="#FF1010"/>
<rect x="1019.81" y="38" width="4" height="40" transform="rotate(17.1709 1019.81 38)" fill="#FF1010"/>
<rect x="1035.81" y="38" width="4" height="40" transform="rotate(17.1709 1035.81 38)" fill="#FF1010"/>
<rect x="1051.81" y="38" width="4" height="40" transform="rotate(17.1709 1051.81 38)" fill="#FF1010"/>
<rect x="1067.81" y="38" width="4" height="40" transform="rotate(17.1709 1067.81 38)" fill="#FF1010"/>
<rect x="1083.81" y="38" width="4" height="40" transform="rotate(17.1709 1083.81 38)" fill="#FF1010"/>
<rect x="1099.81" y="38" width="4" height="40" transform="rotate(17.1709 1099.81 38)" fill="#FF1010"/>
<rect x="1115.81" y="38" width="4" height="40" transform="rotate(17.1709 1115.81 38)" fill="#FF1010"/>
<rect x="1131.81" y="38" width="4" height="40" transform="rotate(17.1709 1131.81 38)" fill="#FF1010"/>
<rect x="1147.81" y="38" width="4" height="40" transform="rotate(17.1709 1147.81 38)" fill="#FF1010"/>
<rect x="1163.81" y="38" width="4" height="40" transform="rotate(17.1709 1163.81 38)" fill="#FF1010"/>
<rect x="1179.81" y="38" width="4" height="40" transform="rotate(17.1709 1179.81 38)" fill="#FF1010"/>
<rect x="1195.81" y="38" width="4" height="40" transform="rotate(17.1709 1195.81 38)" fill="#FF1010"/>
<rect x="1211.81" y="38" width="4" height="40" transform="rotate(17.1709 1211.81 38)" fill="#FF1010"/>
<rect x="1227.81" y="38" width="4" height="40" transform="rotate(17.1709 1227.81 38)" fill="#FF1010"/>
<rect x="1243.81" y="38" width="4" height="40" transform="rotate(17.1709 1243.81 38)" fill="#FF1010"/>
<rect x="1259.81" y="38" width="4" height="40" transform="rotate(17.1709 1259.81 38)" fill="#FF1010"/>
<rect x="1275.81" y="38" width="4" height="40" transform="rotate(17.1709 1275.81 38)" fill="#FF1010"/>
<rect x="1291.81" y="38" width="4" height="40" transform="rotate(17.1709 1291.81 38)" fill="#FF1010"/>
<rect x="1307.81" y="38" width="4" height="40" transform="rotate(17.1709 1307.81 38)" fill="#FF1010"/>
<rect x="1323.81" y="38" width="4" height="40" transform="rotate(17.1709 1323.81 38)" fill="#FF1010"/>
<rect x="1339.81" y="38" width="4" height="40" transform="rotate(17.1709 1339.81 38)" fill="#FF1010"/>
<rect x="1355.81" y="38" width="4" height="40" transform="rotate(17.1709 1355.81 38)" fill="#FF1010"/>
<rect x="1371.81" y="38" width="4" height="40" transform="rotate(17.1709 1371.81 38)" fill="#FF1010"/>
<rect x="1387.81" y="38" width="4" height="40" transform="rotate(17.1709 1387.81 38)" fill="#FF1010"/>
<rect x="1403.81" y="38" width="4" height="40" transform="rotate(17.1709 1403.81 38)" fill="#FF1010"/>
<rect x="1419.81" y="38" width="4" height="40" transform="rotate(17.1709 1419.81 38)" fill="#FF1010"/>
</svg>
